<svg xmlns="http://www.w3.org/2000/svg" viewBox="0 0 48 48" fill="none">
  <rect width="48" height="48" rx="8" fill="#000"/>
  <path d="M33.2 17.5c-1.9-1.2-3.2-3.2-3.5-5.5h-4.2v19.7c0 2.5-2 4.5-4.5 4.5s-4.5-2-4.5-4.5 2-4.5 4.5-4.5c.5 0 .9.1 1.4.2v-4.3c-.5-.1-.9-.1-1.4-.1-4.8 0-8.7 3.9-8.7 8.7s3.9 8.7 8.7 8.7 8.7-3.9 8.7-8.7v-10c1.7 1.2 3.7 1.9 5.9 1.9v-4.2c-.8 0-1.6-.1-2.4-.4v-.5z" fill="#fff"/>
  <path d="M33.2 17.5c1.7 1.1 3.7 1.7 5.8 1.7v-4.1c-1.2-.3-2.4-.8-3.4-1.6-1.9-1.2-3.2-3.2-3.5-5.5h-4.2v19.7c0 2.5-2 4.5-4.5 4.5-1.5 0-2.8-.7-3.6-1.9.9.5 1.9.8 3 .8 2.5 0 4.5-2 4.5-4.5V7h4.2c.3 2.3 1.6 4.3 3.5 5.5.9.6 1.9 1 3 1.1v3.9h.2z" fill="#25F4EE"/>
  <path d="M21 31.2c-2.5 0-4.5 2-4.5 4.5s2 4.5 4.5 4.5c.5 0 .9-.1 1.4-.2v-4.3c-.5-.1-.9-.1-1.4-.1z" fill="#FE2C55"/>
</svg>